<svg width="30" height="24" viewBox="0 0 30 24" fill="none" xmlns="http://www.w3.org/2000/svg">
<path d="M22.8912 12C22.8912 16.2768 19.3661 19.7424 15.0267 19.7424C10.6825 19.7424 7.16224 16.2768 7.16224 12C7.16224 7.7232 10.6776 4.2576 15.0218 4.2576C19.3661 4.2576 22.8912 7.7232 22.8912 12ZM15.0218 0C8.28852 0 2.83264 5.3712 2.83264 12C2.83264 18.6288 8.28852 24 15.0218 24C21.7551 24 27.211 18.6288 27.211 12C27.211 5.3712 21.7551 0 15.0218 0Z" fill="#DC241F"/>
<path d="M30 9.57593H0V14.4287H30V9.57593Z" fill="#0019A8"/>
<path d="M3.50581 12.8928C3.30104 13.1424 2.99387 13.3008 2.61357 13.3008C2.23327 13.3008 1.93098 13.1472 1.71645 12.888C1.55067 12.6912 1.47754 12.456 1.47754 12.12V10.752H1.97486V12.1248C1.97486 12.552 2.22351 12.8304 2.61357 12.8304C3.01337 12.8304 3.25715 12.5472 3.25715 12.1248V10.752H3.7496V12.1056C3.7496 12.4512 3.68621 12.6768 3.50581 12.8928Z" fill="white"/>
<path d="M5.9774 13.2528L4.62684 11.5296V13.2528H4.12952V10.752H4.62684L5.9774 12.4848V10.752H6.47471V13.2528H5.9774Z" fill="white"/>
<path d="M7.57685 13.2528H6.86987V10.752H7.73774C8.61536 10.752 9.0883 11.3232 9.0883 11.9712C9.08343 12.6432 8.58611 13.2528 7.57685 13.2528ZM7.64511 11.1744H7.36232V12.816H7.6061C8.19606 12.816 8.58611 12.4896 8.58611 11.9904C8.58123 11.4864 8.23019 11.1744 7.64511 11.1744Z" fill="white"/>
<path d="M9.39526 13.2528V10.752H10.9701V11.1888H9.88771V11.7072H10.78V12.1488H9.88771V12.8064H11.0627V13.2528H9.39526Z" fill="white"/>
<path d="M12.7549 13.2528L12.0528 12.2544H11.8236V13.2528H11.3312V10.752H12.1552C12.6769 10.752 13.0182 11.0208 13.0182 11.4816C13.0182 11.7888 12.8426 12.0336 12.5403 12.1392L13.34 13.248H12.7549V13.2528ZM12.1113 11.1744H11.8285V11.832H12.0625C12.3502 11.832 12.5208 11.7072 12.5208 11.4864C12.5257 11.2944 12.3697 11.1744 12.1113 11.1744Z" fill="white"/>
<path d="M14.6952 13.3009C13.9005 13.3009 13.3154 12.7537 13.3154 12.0001C13.3154 11.2657 13.9005 10.7041 14.6904 10.7041C14.9878 10.7041 15.2901 10.7809 15.5729 10.9249V11.4337C15.334 11.2657 15.0268 11.1505 14.7245 11.1505C14.1735 11.1505 13.8176 11.5393 13.8176 12.0097C13.8176 12.4897 14.1784 12.8641 14.7099 12.8641C14.8415 12.8641 14.9683 12.8545 15.0999 12.8065V12.2689H14.6855V11.8417H15.5972V13.0321C15.2901 13.2145 15.0219 13.3009 14.6952 13.3009Z" fill="white"/>
<path d="M17.3964 13.2528L16.6943 12.2544H16.4651V13.2528H15.9727V10.752H16.7966C17.3183 10.752 17.6596 11.0208 17.6596 11.4816C17.6596 11.7888 17.4841 12.0336 17.1818 12.1392L17.9814 13.248H17.3964V13.2528ZM16.7479 11.1744H16.4651V11.832H16.6991C16.9868 11.832 17.1574 11.7072 17.1574 11.4864C17.1623 11.2944 17.0063 11.1744 16.7479 11.1744Z" fill="white"/>
<path d="M19.2831 13.3009C18.5517 13.3009 17.952 12.7585 17.952 12.0001C17.952 11.2465 18.5566 10.7041 19.2831 10.7041C20.0095 10.7041 20.6141 11.2465 20.6141 12.0049C20.619 12.7585 20.0095 13.3009 19.2831 13.3009ZM19.2831 11.1841C18.8053 11.1841 18.4542 11.5393 18.4542 12.0049C18.4542 12.4657 18.8053 12.8209 19.2831 12.8209C19.7609 12.8209 20.1119 12.4657 20.1119 12.0049C20.1168 11.5393 19.7609 11.1841 19.2831 11.1841Z" fill="white"/>
<path d="M22.9401 12.8928C22.7353 13.1424 22.4282 13.3008 22.0479 13.3008C21.6676 13.3008 21.3653 13.1472 21.1508 12.888C20.985 12.6912 20.9119 12.456 20.9119 12.12V10.752H21.4043V12.1248C21.4043 12.552 21.6578 12.8304 22.043 12.8304C22.4428 12.8304 22.6866 12.5472 22.6866 12.1248V10.752H23.179V12.1056C23.1839 12.4512 23.1205 12.6768 22.9401 12.8928Z" fill="white"/>
<path d="M25.4171 13.2528L24.0617 11.5296V13.2528H23.5643V10.752H24.0617L25.4171 12.4848V10.752H25.9095V13.2528H25.4171Z" fill="white"/>
<path d="M27.0112 13.2528H26.3042V10.752H27.1721C28.0497 10.752 28.5226 11.3232 28.5226 11.9712C28.5226 12.6432 28.0204 13.2528 27.0112 13.2528ZM27.0843 11.1744H26.7966V12.816H27.0404C27.6304 12.816 28.0204 12.4896 28.0204 11.9904C28.0204 11.4864 27.6645 11.1744 27.0843 11.1744Z" fill="white"/>
</svg>
